<svg width="295" height="98" viewBox="0 0 295 98" fill="none" xmlns="http://www.w3.org/2000/svg">
<rect x="1.29102" y="1" width="292" height="96" rx="12" fill="url(#paint0_linear_116_674)" fill-opacity="0.26"/>
<path d="M56.5658 61V37.0605H62.1061V61H56.5658ZM66.4879 46.9783L68.745 38.7705L69.4974 41.8826C68.517 41.8826 67.7076 41.5976 67.0693 41.0276C66.4537 40.4348 66.1459 39.6368 66.1459 38.6337C66.1459 37.6533 66.4651 36.8667 67.1035 36.2739C67.7418 35.6583 68.5284 35.3505 69.4632 35.3505C70.4208 35.3505 71.2074 35.6583 71.823 36.2739C72.4385 36.8667 72.7463 37.6533 72.7463 38.6337C72.7463 38.9301 72.7235 39.2265 72.6779 39.5228C72.6551 39.7964 72.5753 40.127 72.4385 40.5146C72.3245 40.9022 72.1307 41.4152 71.8572 42.0536L69.8736 46.9783H66.4879ZM76.738 61V37.0605H81.3207L91.5121 53.9549H89.084L99.1044 37.0605H103.653L103.721 61H98.523L98.4888 45.0289H99.4464L91.4437 58.4693H88.9472L80.7735 45.0289H81.9363V61H76.738ZM119.086 61V37.0605H129.449C131.592 37.0605 133.439 37.4139 134.989 38.1207C136.539 38.8047 137.736 39.7964 138.58 41.096C139.424 42.3956 139.845 43.946 139.845 45.7471C139.845 47.5255 139.424 49.0644 138.58 50.364C137.736 51.6408 136.539 52.6212 134.989 53.3052C133.439 53.9891 131.592 54.3311 129.449 54.3311H122.164L124.627 51.903V61H119.086ZM134.305 61L128.32 52.3134H134.237L140.29 61H134.305ZM124.627 52.5186L122.164 49.9194H129.141C130.851 49.9194 132.128 49.5546 132.971 48.8251C133.815 48.0727 134.237 47.0467 134.237 45.7471C134.237 44.4247 133.815 43.3988 132.971 42.6692C132.128 41.9396 130.851 41.5748 129.141 41.5748H122.164L124.627 38.9415V52.5186ZM149.331 46.7047H160.856V51.0138H149.331V46.7047ZM149.741 56.5541H162.771V61H144.235V37.0605H162.326V41.5064H149.741V56.5541ZM164.033 61L174.703 37.0605H180.175L190.879 61H185.065L176.31 39.8648H178.499L169.71 61H164.033ZM169.368 55.8701L170.838 51.6636H183.15L184.655 55.8701H169.368ZM193.363 61V37.0605H204.238C206.837 37.0605 209.129 37.5621 211.112 38.5653C213.096 39.5456 214.646 40.925 215.763 42.7034C216.881 44.4817 217.439 46.5907 217.439 49.0302C217.439 51.447 216.881 53.556 215.763 55.3571C214.646 57.1355 213.096 58.5263 211.112 59.5294C209.129 60.5098 206.837 61 204.238 61H193.363ZM198.903 56.4515H203.965C205.561 56.4515 206.94 56.1551 208.103 55.5623C209.288 54.9467 210.2 54.0803 210.839 52.9632C211.5 51.846 211.831 50.535 211.831 49.0302C211.831 47.5027 211.5 46.1917 210.839 45.0973C210.2 43.9802 209.288 43.1252 208.103 42.5324C206.94 41.9168 205.561 41.609 203.965 41.609H198.903V56.4515ZM226.533 61V51.219L227.798 54.5705L217.265 37.0605H223.147L231.218 50.5008H227.832L235.938 37.0605H241.375L230.842 54.5705L232.073 51.219V61H226.533Z" fill="url(#paint1_linear_116_674)"/>
<rect x="1.29102" y="1" width="292" height="96" rx="12" stroke="url(#paint2_linear_116_674)" stroke-width="2"/>
<defs>
<linearGradient id="paint0_linear_116_674" x1="43.8618" y1="1.81092e-05" x2="276.182" y2="38.3133" gradientUnits="userSpaceOnUse">
<stop stop-color="#7E0785"/>
<stop offset="1" stop-color="#0D6679"/>
</linearGradient>
<linearGradient id="paint1_linear_116_674" x1="66.3815" y1="27.9999" x2="241.838" y2="34.7143" gradientUnits="userSpaceOnUse">
<stop stop-color="#3491FF"/>
<stop offset="1" stop-color="#E375FF"/>
</linearGradient>
<linearGradient id="paint2_linear_116_674" x1="0.291016" y1="0" x2="309.905" y2="45.0751" gradientUnits="userSpaceOnUse">
<stop stop-color="#FF9DFF"/>
<stop offset="1" stop-color="#0AAF88"/>
</linearGradient>
</defs>
</svg>
