<svg width="295" height="98" viewBox="0 0 295 98" fill="none" xmlns="http://www.w3.org/2000/svg">
<rect x="1.29053" y="1" width="292" height="96" rx="12" fill="url(#paint0_linear_116_674)" fill-opacity="0.43"/>
<g filter="url(#filter0_d_116_674)">
<path d="M56.5653 61V37.0605H62.1056V61H56.5653ZM66.4874 46.9783L68.7445 38.7705L69.4969 41.8826C68.5165 41.8826 67.7072 41.5976 67.0688 41.0276C66.4532 40.4348 66.1454 39.6368 66.1454 38.6337C66.1454 37.6533 66.4646 36.8667 67.103 36.2739C67.7413 35.6583 68.5279 35.3505 69.4627 35.3505C70.4203 35.3505 71.2069 35.6583 71.8225 36.2739C72.4381 36.8667 72.7458 37.6533 72.7458 38.6337C72.7458 38.9301 72.723 39.2265 72.6774 39.5228C72.6546 39.7964 72.5748 40.127 72.4381 40.5146C72.3241 40.9022 72.1303 41.4152 71.8567 42.0536L69.8731 46.9783H66.4874ZM76.7375 61V37.0605H81.3202L91.5116 53.9549H89.0835L99.1039 37.0605H103.652L103.721 61H98.5225L98.4883 45.0289H99.4459L91.4432 58.4693H88.9467L80.7731 45.0289H81.9358V61H76.7375ZM119.086 61V37.0605H129.448C131.591 37.0605 133.438 37.4139 134.989 38.1207C136.539 38.8047 137.736 39.7964 138.579 41.096C139.423 42.3956 139.845 43.946 139.845 45.7471C139.845 47.5255 139.423 49.0644 138.579 50.364C137.736 51.6408 136.539 52.6212 134.989 53.3052C133.438 53.9891 131.591 54.3311 129.448 54.3311H122.164L124.626 51.903V61H119.086ZM134.305 61L128.32 52.3134H134.236L140.289 61H134.305ZM124.626 52.5186L122.164 49.9194H129.14C130.85 49.9194 132.127 49.5546 132.971 48.8251C133.814 48.0727 134.236 47.0467 134.236 45.7471C134.236 44.4247 133.814 43.3988 132.971 42.6692C132.127 41.9396 130.85 41.5748 129.14 41.5748H122.164L124.626 38.9415V52.5186ZM149.33 46.7047H160.855V51.0138H149.33V46.7047ZM149.74 56.5541H162.77V61H144.234V37.0605H162.326V41.5064H149.74V56.5541ZM164.032 61L174.702 37.0605H180.174L190.879 61H185.065L176.31 39.8648H178.499L169.709 61H164.032ZM169.367 55.8701L170.838 51.6636H183.15L184.654 55.8701H169.367ZM193.362 61V37.0605H204.238C206.837 37.0605 209.128 37.5621 211.112 38.5653C213.095 39.5456 214.646 40.925 215.763 42.7034C216.88 44.4817 217.439 46.5907 217.439 49.0302C217.439 51.447 216.88 53.556 215.763 55.3571C214.646 57.1355 213.095 58.5263 211.112 59.5294C209.128 60.5098 206.837 61 204.238 61H193.362ZM198.903 56.4515H203.964C205.56 56.4515 206.94 56.1551 208.102 55.5623C209.288 54.9467 210.2 54.0803 210.838 52.9632C211.499 51.846 211.83 50.535 211.83 49.0302C211.83 47.5027 211.499 46.1917 210.838 45.0973C210.2 43.9802 209.288 43.1252 208.102 42.5324C206.94 41.9168 205.56 41.609 203.964 41.609H198.903V56.4515ZM226.532 61V51.219L227.798 54.5705L217.264 37.0605H223.147L231.218 50.5008H227.832L235.937 37.0605H241.375L230.841 54.5705L232.073 51.219V61H226.532Z" fill="url(#paint1_linear_116_674)"/>
</g>
<rect x="1.29053" y="1" width="292" height="96" rx="12" stroke="url(#paint2_linear_116_674)" stroke-width="2"/>
<defs>
<filter id="filter0_d_116_674" x="52.5653" y="35.3505" width="192.809" height="33.6495" filterUnits="userSpaceOnUse" color-interpolation-filters="sRGB">
<feFlood flood-opacity="0" result="BackgroundImageFix"/>
<feColorMatrix in="SourceAlpha" type="matrix" values="0 0 0 0 0 0 0 0 0 0 0 0 0 0 0 0 0 0 127 0" result="hardAlpha"/>
<feOffset dy="4"/>
<feGaussianBlur stdDeviation="2"/>
<feComposite in2="hardAlpha" operator="out"/>
<feColorMatrix type="matrix" values="0 0 0 0 0 0 0 0 0 0 0 0 0 0 0 0 0 0 0.25 0"/>
<feBlend mode="normal" in2="BackgroundImageFix" result="effect1_dropShadow_116_674"/>
<feBlend mode="normal" in="SourceGraphic" in2="effect1_dropShadow_116_674" result="shape"/>
</filter>
<linearGradient id="paint0_linear_116_674" x1="43.8613" y1="1.81092e-05" x2="276.181" y2="38.3133" gradientUnits="userSpaceOnUse">
<stop stop-color="#C122CA"/>
<stop offset="1" stop-color="#29B1CF"/>
</linearGradient>
<linearGradient id="paint1_linear_116_674" x1="66.381" y1="27.9999" x2="241.837" y2="34.7143" gradientUnits="userSpaceOnUse">
<stop stop-color="#94C5FF"/>
<stop offset="1" stop-color="#F1B8FF"/>
</linearGradient>
<linearGradient id="paint2_linear_116_674" x1="0.290527" y1="0" x2="309.905" y2="45.0751" gradientUnits="userSpaceOnUse">
<stop stop-color="#FF9DFF"/>
<stop offset="1" stop-color="#0AAF88"/>
</linearGradient>
</defs>
</svg>
