<svg width="420" height="99" viewBox="0 0 420 99" fill="none" xmlns="http://www.w3.org/2000/svg">
<rect x="1.45508" y="1.55371" width="417" height="96" rx="12" fill="url(#paint0_linear_167_2588)" fill-opacity="0.26"/>
<path d="M56.5924 61.5537V37.6142H62.1327V61.5537H56.5924ZM83.2449 61.5537L75.4132 37.6142H81.1587L87.9644 58.8178H85.0916L92.2051 37.6142H97.335L104.175 58.8178H101.405L108.381 37.6142H113.682L105.851 61.5537H99.8999L93.8466 42.9493H95.4198L89.1955 61.5537H83.2449ZM112.827 61.5537L123.497 37.6142H128.969L139.674 61.5537H133.86L125.105 40.4186H127.294L118.504 61.5537H112.827ZM118.162 56.4238L119.633 52.2173H131.945L133.449 56.4238H118.162ZM142.157 61.5537V37.6142H146.74L160.864 54.8507H158.641V37.6142H164.113V61.5537H159.565L145.406 44.3173H147.629V61.5537H142.157ZM174.736 61.5537V42.1285H167.076V37.6142H187.937V42.1285H180.277V61.5537H174.736ZM205.562 61.5537V42.1285H197.902V37.6142H218.763V42.1285H211.103V61.5537H205.562ZM233.038 61.9641C231.146 61.9641 229.39 61.6563 227.771 61.0407C226.175 60.4251 224.785 59.5588 223.599 58.4416C222.436 57.3244 221.524 56.0134 220.863 54.5087C220.225 53.0039 219.905 51.3623 219.905 49.584C219.905 47.8056 220.225 46.164 220.863 44.6593C221.524 43.1545 222.448 41.8435 223.633 40.7263C224.819 39.6092 226.21 38.7428 227.806 38.1272C229.401 37.5116 231.134 37.2038 233.004 37.2038C234.896 37.2038 236.629 37.5116 238.202 38.1272C239.798 38.7428 241.177 39.6092 242.34 40.7263C243.526 41.8435 244.449 43.1545 245.11 44.6593C245.772 46.1412 246.102 47.7828 246.102 49.584C246.102 51.3623 245.772 53.0153 245.11 54.5429C244.449 56.0476 243.526 57.3586 242.34 58.4758C241.177 59.5702 239.798 60.4251 238.202 61.0407C236.629 61.6563 234.908 61.9641 233.038 61.9641ZM233.004 57.2446C234.075 57.2446 235.056 57.0622 235.945 56.6974C236.857 56.3326 237.655 55.8082 238.339 55.1242C239.023 54.4403 239.547 53.6309 239.912 52.6961C240.3 51.7613 240.493 50.7239 240.493 49.584C240.493 48.444 240.3 47.4066 239.912 46.4718C239.547 45.537 239.023 44.7277 238.339 44.0437C237.678 43.3597 236.891 42.8353 235.979 42.4705C235.067 42.1057 234.075 41.9233 233.004 41.9233C231.932 41.9233 230.94 42.1057 230.028 42.4705C229.139 42.8353 228.353 43.3597 227.669 44.0437C226.985 44.7277 226.449 45.537 226.061 46.4718C225.697 47.4066 225.514 48.444 225.514 49.584C225.514 50.7011 225.697 51.7385 226.061 52.6961C226.449 53.6309 226.973 54.4403 227.635 55.1242C228.318 55.8082 229.116 56.3326 230.028 56.6974C230.94 57.0622 231.932 57.2446 233.004 57.2446ZM271.408 61.9641C269.561 61.9641 267.84 61.6677 266.244 61.0749C264.671 60.4593 263.303 59.593 262.14 58.4758C260.977 57.3586 260.065 56.0476 259.404 54.5429C258.766 53.0381 258.446 51.3851 258.446 49.584C258.446 47.7828 258.766 46.1298 259.404 44.6251C260.065 43.1203 260.977 41.8093 262.14 40.6921C263.326 39.575 264.705 38.72 266.278 38.1272C267.851 37.5116 269.573 37.2038 271.442 37.2038C273.517 37.2038 275.387 37.5686 277.051 38.2982C278.738 39.005 280.152 40.0538 281.292 41.4445L277.735 44.7277C276.914 43.7929 276.002 43.0975 274.999 42.6415C273.996 42.1627 272.901 41.9233 271.716 41.9233C270.599 41.9233 269.573 42.1057 268.638 42.4705C267.703 42.8353 266.894 43.3597 266.21 44.0437C265.526 44.7277 264.99 45.537 264.602 46.4718C264.238 47.4066 264.055 48.444 264.055 49.584C264.055 50.7239 264.238 51.7613 264.602 52.6961C264.99 53.6309 265.526 54.4403 266.21 55.1242C266.894 55.8082 267.703 56.3326 268.638 56.6974C269.573 57.0622 270.599 57.2446 271.716 57.2446C272.901 57.2446 273.996 57.0166 274.999 56.5606C276.002 56.0818 276.914 55.3636 277.735 54.4061L281.292 57.6892C280.152 59.08 278.738 60.1401 277.051 60.8697C275.387 61.5993 273.506 61.9641 271.408 61.9641ZM296.16 61.9641C294.267 61.9641 292.512 61.6563 290.893 61.0407C289.297 60.4251 287.906 59.5588 286.721 58.4416C285.558 57.3244 284.646 56.0134 283.985 54.5087C283.346 53.0039 283.027 51.3623 283.027 49.584C283.027 47.8056 283.346 46.164 283.985 44.6593C284.646 43.1545 285.569 41.8435 286.755 40.7263C287.94 39.6092 289.331 38.7428 290.927 38.1272C292.523 37.5116 294.256 37.2038 296.126 37.2038C298.018 37.2038 299.751 37.5116 301.324 38.1272C302.92 38.7428 304.299 39.6092 305.462 40.7263C306.647 41.8435 307.571 43.1545 308.232 44.6593C308.893 46.1412 309.224 47.7828 309.224 49.584C309.224 51.3623 308.893 53.0153 308.232 54.5429C307.571 56.0476 306.647 57.3586 305.462 58.4758C304.299 59.5702 302.92 60.4251 301.324 61.0407C299.751 61.6563 298.029 61.9641 296.16 61.9641ZM296.126 57.2446C297.197 57.2446 298.177 57.0622 299.067 56.6974C299.979 56.3326 300.777 55.8082 301.461 55.1242C302.145 54.4403 302.669 53.6309 303.034 52.6961C303.421 51.7613 303.615 50.7239 303.615 49.584C303.615 48.444 303.421 47.4066 303.034 46.4718C302.669 45.537 302.145 44.7277 301.461 44.0437C300.799 43.3597 300.013 42.8353 299.101 42.4705C298.189 42.1057 297.197 41.9233 296.126 41.9233C295.054 41.9233 294.062 42.1057 293.15 42.4705C292.261 42.8353 291.474 43.3597 290.79 44.0437C290.106 44.7277 289.571 45.537 289.183 46.4718C288.818 47.4066 288.636 48.444 288.636 49.584C288.636 50.7011 288.818 51.7385 289.183 52.6961C289.571 53.6309 290.095 54.4403 290.756 55.1242C291.44 55.8082 292.238 56.3326 293.15 56.6974C294.062 57.0622 295.054 57.2446 296.126 57.2446ZM313.388 61.5537V37.6142H317.97L328.162 54.5087H325.734L335.754 37.6142H340.302L340.371 61.5537H335.173L335.138 45.5826H336.096L328.093 59.023H325.597L317.423 45.5826H318.586V61.5537H313.388ZM351.146 47.2584H362.671V51.5675H351.146V47.2584ZM351.557 57.1078H364.587V61.5537H346.051V37.6142H364.142V42.0601H351.557V57.1078Z" fill="url(#paint1_linear_167_2588)"/>
<rect x="1.45508" y="1.55371" width="417" height="96" rx="12" stroke="url(#paint2_linear_167_2588)" stroke-width="2"/>
<defs>
<linearGradient id="paint0_linear_167_2588" x1="62.5508" y1="0.553729" x2="384.847" y2="76.3042" gradientUnits="userSpaceOnUse">
<stop stop-color="#7E0785"/>
<stop offset="1" stop-color="#0D6679"/>
</linearGradient>
<linearGradient id="paint1_linear_167_2588" x1="75.2494" y1="28.5536" x2="366.61" y2="47.1168" gradientUnits="userSpaceOnUse">
<stop stop-color="#3491FF"/>
<stop offset="1" stop-color="#E375FF"/>
</linearGradient>
<linearGradient id="paint2_linear_167_2588" x1="0.455078" y1="0.553711" x2="432.463" y2="90.1879" gradientUnits="userSpaceOnUse">
<stop stop-color="#FF9DFF"/>
<stop offset="1" stop-color="#0AAF88"/>
</linearGradient>
</defs>
</svg>
