<svg id="Layer_1" data-name="Layer 1" xmlns="http://www.w3.org/2000/svg" viewBox="0 0 426.7 418.79"><defs><style>.cls-1{fill:#fff;}</style></defs><g id="_20-audio_-mute_-off_-sound_-speaker" data-name="20-audio,-mute,-off,-sound,-speaker"><path id="Shape" class="cls-1" d="M249.39,57.14C277.33,32.93,320,53.33,320,89.39V422.61c0,32.25-37.76,58.09-70.61,32.25L130.71,352H85.33c-22.11,0-42.66-17.93-42.66-42.67V202.67c0-22.85,18.79-42.67,42.66-42.67H130.7ZM377.75,198.25l27.58,27.57,27.59-27.57a21.32,21.32,0,0,1,30.16,0c7.9,7.89,8.84,20.91,0,30.17L435.51,256l27.57,27.58a21.32,21.32,0,0,1,0,30.17c-7.89,7.89-20.56,9.15-30.16,0l-27.59-27.58-27.58,27.58a21.34,21.34,0,0,1-30.17,0c-7.89-7.89-8.74-21.72,0-30.17L375.16,256l-27.58-27.58a21.34,21.34,0,0,1,0-30.17c7.89-7.89,21.61-9.14,30.17,0Z" transform="translate(-42.67 -46.61)"/></g></svg>