<svg id="Layer_1" data-name="Layer 1" xmlns="http://www.w3.org/2000/svg" viewBox="0 0 362.67 418.84"><defs><style>.cls-1{fill:#fff;}</style></defs><g id="_21-audio_-low_-sound_-speaker_-volume" data-name="21-audio,-low,-sound,-speaker,-volume"><path id="Shape" class="cls-1" d="M281.39,67.81C308.14,44.62,352,62.06,352,100.05V433.28c0,32.24-38.38,58.39-70.61,32.24L162.71,362.67H117.33c-22.11,0-42.66-17.59-42.66-42.67V213.33c0-22.85,19.3-42.66,42.66-42.66H162.7Zm137.1,121.31A128.08,128.08,0,0,1,409,336.36a21.33,21.33,0,1,1-33.2-26.8,85.36,85.36,0,0,0,6.35-98.12,21.34,21.34,0,1,1,36.37-22.32Z" transform="translate(-74.67 -57.36)"/></g></svg>